<svg width="157" height="48" viewBox="0 0 157 48" fill="none" xmlns="http://www.w3.org/2000/svg">
<path d="M8.93056 29.736C11.0746 29.736 13.1066 29.112 15.0266 27.864C16.9466 26.616 17.9066 25.144 17.9066 23.448C17.9066 22.232 17.4266 21.224 16.4666 20.424C14.8026 19.08 12.4826 18.408 9.50656 18.408C8.77056 18.408 8.37056 18.424 8.30656 18.456C8.27456 18.488 8.25856 19.976 8.25856 22.92C8.25856 25.864 8.40256 28.12 8.69056 29.688C8.75456 29.72 8.83456 29.736 8.93056 29.736ZM12.6746 12.6C13.5066 12.248 14.2106 11.736 14.7866 11.064C15.3946 10.36 15.6986 9.64 15.6986 8.904C15.6986 8.136 15.4746 7.528 15.0266 7.08C14.5786 6.632 14.0186 6.296 13.3466 6.072C12.6746 5.848 12.0186 5.688 11.3786 5.592C10.7706 5.496 10.1786 5.448 9.60256 5.448C9.02656 5.448 8.70656 5.48 8.64256 5.544C8.61056 5.576 8.54656 6.888 8.45056 9.48C8.38656 12.04 8.35456 13.4 8.35456 13.56C8.38656 13.592 8.54656 13.608 8.83456 13.608C9.15456 13.608 9.66656 13.528 10.3706 13.368C11.0746 13.176 11.8426 12.92 12.6746 12.6ZM2.25856 26.28L2.49856 7.944C2.49856 6.664 2.46656 5.992 2.40256 5.928C2.05056 5.576 1.58656 4.808 1.01056 3.624C0.434563 2.408 0.146563 1.624 0.146563 1.272L0.194563 1.128C0.386563 0.967999 1.39456 0.823998 3.21856 0.695998C5.07456 0.567998 6.89856 0.503998 8.69056 0.503998C10.5146 0.503998 12.1786 0.615998 13.6826 0.839999C15.1866 1.064 16.6426 1.416 18.0506 1.896C19.4906 2.376 20.6426 3.096 21.5066 4.056C22.3706 4.984 22.8026 6.04 22.8026 7.224C22.8026 8.376 22.5466 9.432 22.0346 10.392C21.5546 11.32 20.9466 12.104 20.2106 12.744C19.0906 13.704 18.0026 14.44 16.9466 14.952C16.8826 15.016 16.8506 15.064 16.8506 15.096C16.8826 15.128 17.1066 15.208 17.5226 15.336C17.9706 15.464 18.3866 15.624 18.7706 15.816C19.1866 15.976 19.6826 16.2 20.2586 16.488C20.8346 16.776 21.3626 17.128 21.8426 17.544C22.3226 17.928 22.7706 18.376 23.1866 18.888C24.1146 19.976 24.5786 21.464 24.5786 23.352C24.5786 25.208 24.0026 26.952 22.8506 28.584C21.6986 30.216 20.1626 31.496 18.2426 32.424C14.4026 34.28 10.0346 35.208 5.13856 35.208L2.69056 35.064C2.59456 34.936 2.49856 33.784 2.40256 31.608C2.30656 29.4 2.25856 27.624 2.25856 26.28ZM28.4234 26.184L28.6154 8.808C28.6154 6.28 28.5834 4.568 28.5194 3.672C28.4554 2.776 28.4234 2.296 28.4234 2.232C28.4234 1.912 28.9514 1.544 30.0074 1.128C31.0954 0.711998 32.0554 0.503998 32.8874 0.503998C33.7194 0.503998 34.1354 0.567998 34.1354 0.695998C33.9754 1.88 33.8954 6.04 33.8954 13.176L33.7994 24.936C33.7994 27.144 33.8314 28.504 33.8954 29.016C34.0554 30.424 34.5194 31.704 35.2874 32.856C35.2874 33.176 34.6314 33.688 33.3194 34.392C32.0074 35.096 30.8874 35.448 29.9594 35.448C29.7034 35.448 29.4154 34.968 29.0954 34.008C28.7754 33.048 28.5834 32.216 28.5194 31.512C28.4554 30.808 28.4234 29.032 28.4234 26.184ZM58.5029 23.016C58.5029 26.056 57.5749 28.696 55.7189 30.936C53.8949 33.144 51.3989 34.248 48.2309 34.248C45.0949 34.248 42.6309 33.272 40.8389 31.32C39.0469 29.368 38.1509 26.84 38.1509 23.736C38.1509 20.6 39.2549 17.832 41.4629 15.432C43.7029 13 46.7109 11.784 50.4869 11.784C52.0229 11.848 52.8549 11.944 52.9829 12.072C53.1109 12.2 53.1749 12.504 53.1749 12.984C53.1749 13.464 53.1269 13.992 53.0309 14.568C53.5109 14.568 54.1189 14.856 54.8549 15.432C55.6229 15.976 56.2469 16.536 56.7269 17.112C57.2069 17.688 57.6229 18.504 57.9749 19.56C58.3269 20.584 58.5029 21.736 58.5029 23.016ZM51.4949 19.656C50.7589 19.176 50.0389 18.936 49.3349 18.936H48.9509C48.8869 18.808 48.8549 18.536 48.8549 18.12C48.8549 17.704 48.9029 17.304 48.9989 16.92C47.6869 16.92 46.4549 17.512 45.3029 18.696C44.1829 19.88 43.6229 21.528 43.6229 23.64C43.6229 26.136 44.4229 27.864 46.0229 28.824C46.6309 29.208 47.4629 29.4 48.5189 29.4C49.6069 29.4 50.6149 28.904 51.5429 27.912C52.5029 26.92 52.9829 25.448 52.9829 23.496C52.9829 21.544 52.4869 20.264 51.4949 19.656ZM68.1689 22.2L68.2169 23.976V27.624C68.2169 31.048 68.1529 32.824 68.0249 32.952C67.6089 33.368 66.8889 33.688 65.8649 33.912C64.8409 34.136 63.9929 34.248 63.3209 34.248C62.6809 34.248 62.3609 34.2 62.3609 34.104C62.5849 32.664 62.6969 30.296 62.6969 27L62.5529 16.2C62.5529 14.216 62.6329 13.144 62.7929 12.984C63.1449 12.632 63.7529 12.328 64.6169 12.072C65.4809 11.784 66.2809 11.64 67.0169 11.64C67.7849 11.64 68.1689 11.72 68.1689 11.88C68.0729 12.648 68.0249 13.416 68.0249 14.184C68.0249 14.952 68.0729 15.336 68.1689 15.336L68.3129 15.24C68.4729 15.016 68.7129 14.744 69.0329 14.424C69.3529 14.072 70.0249 13.624 71.0489 13.08C72.1049 12.504 73.0969 12.216 74.0249 12.216C74.9849 12.216 75.7849 12.392 76.4249 12.744C77.0969 13.064 77.6409 13.464 78.0569 13.944C78.4729 14.424 78.8249 15.112 79.1129 16.008C79.4329 16.904 79.6729 17.736 79.8329 18.504C79.9929 19.272 80.1209 20.296 80.2169 21.576C80.3129 23.336 80.3609 25.576 80.3609 28.296L80.2169 33.912C80.2169 34.136 79.6889 34.344 78.6329 34.536C77.5769 34.76 76.7289 34.872 76.0889 34.872L74.5049 34.632C74.8249 31.752 74.9849 28.968 74.9849 26.28C74.9849 23.56 74.8089 21.528 74.4569 20.184C74.1049 18.808 73.4009 18.12 72.3449 18.12C71.2889 18.12 70.4249 18.408 69.7529 18.984C69.1129 19.56 68.6969 20.136 68.5049 20.712L68.1689 21.528V22.2ZM96.6734 12.408L96.5774 5.304C96.5774 3.32 96.6254 2.28 96.7214 2.184C97.1054 1.8 97.7294 1.432 98.5934 1.08C99.4894 0.695998 100.337 0.503998 101.137 0.503998C101.937 0.503998 102.337 0.567998 102.337 0.695998C102.081 6.008 101.953 11.656 101.953 17.64C101.953 23.624 102.049 27.192 102.241 28.344C102.465 30.072 102.993 31.352 103.825 32.184C103.825 32.504 103.153 33 101.809 33.672C100.497 34.376 99.3774 34.728 98.4494 34.728C98.3534 34.728 98.2094 34.6 98.0174 34.344C97.4094 33.544 97.0414 32.456 96.9134 31.08C96.9134 30.984 96.8814 30.936 96.8174 30.936L96.6734 31.032C95.3294 32.952 93.3294 33.912 90.6734 33.912C88.5294 33.912 86.8334 33.064 85.5854 31.368C84.3374 29.672 83.7134 27.768 83.7134 25.656C83.7134 22.04 84.8334 18.968 87.0734 16.44C89.3134 13.88 92.5134 12.536 96.6734 12.408ZM96.7694 17.448C96.7694 17.384 96.5934 17.352 96.2414 17.352H96.0494C94.0014 17.352 92.3854 18.008 91.2014 19.32C90.0494 20.632 89.4734 22.296 89.4734 24.312C89.4734 25.496 89.7454 26.472 90.2894 27.24C90.8654 27.976 91.7134 28.344 92.8334 28.344C93.9854 28.344 94.8974 27.848 95.5694 26.856C96.2734 25.864 96.6254 25.08 96.6254 24.504C96.6254 20.952 96.6734 18.6 96.7694 17.448ZM109.738 4.344C110.634 4.344 111.354 4.632 111.898 5.208C112.442 5.784 112.714 6.536 112.714 7.464C112.714 8.392 112.346 9.192 111.61 9.864C110.906 10.504 110.106 10.824 109.21 10.824C108.346 10.824 107.642 10.552 107.098 10.008C106.586 9.432 106.33 8.68 106.33 7.752C106.33 6.824 106.682 6.024 107.386 5.352C108.09 4.68 108.874 4.344 109.738 4.344ZM112.186 16.296L112.09 24.072C112.09 26.568 112.154 28.408 112.282 29.592C112.442 30.744 112.858 31.832 113.53 32.856C113.53 33.176 112.874 33.688 111.562 34.392C110.25 35.096 109.13 35.448 108.202 35.448C107.914 35.448 107.626 34.968 107.338 34.008C107.05 33.048 106.858 32.136 106.762 31.272C106.698 30.408 106.666 27.496 106.666 22.536C106.666 17.576 106.778 14.872 107.002 14.424C107.738 13.848 109.034 13.56 110.89 13.56C111.626 13.56 112.074 13.656 112.234 13.848L112.186 16.296ZM122.685 22.2L122.733 23.976V27.624C122.733 31.048 122.669 32.824 122.541 32.952C122.125 33.368 121.405 33.688 120.381 33.912C119.357 34.136 118.509 34.248 117.837 34.248C117.197 34.248 116.877 34.2 116.877 34.104C117.101 32.664 117.213 30.296 117.213 27L117.069 16.2C117.069 14.216 117.149 13.144 117.309 12.984C117.661 12.632 118.269 12.328 119.133 12.072C119.997 11.784 120.797 11.64 121.533 11.64C122.301 11.64 122.685 11.72 122.685 11.88C122.589 12.648 122.541 13.416 122.541 14.184C122.541 14.952 122.589 15.336 122.685 15.336L122.829 15.24C122.989 15.016 123.229 14.744 123.549 14.424C123.869 14.072 124.541 13.624 125.565 13.08C126.621 12.504 127.613 12.216 128.541 12.216C129.501 12.216 130.301 12.392 130.941 12.744C131.613 13.064 132.157 13.464 132.573 13.944C132.989 14.424 133.341 15.112 133.629 16.008C133.949 16.904 134.189 17.736 134.349 18.504C134.509 19.272 134.637 20.296 134.733 21.576C134.829 23.336 134.877 25.576 134.877 28.296L134.733 33.912C134.733 34.136 134.205 34.344 133.149 34.536C132.093 34.76 131.245 34.872 130.605 34.872L129.021 34.632C129.341 31.752 129.501 28.968 129.501 26.28C129.501 23.56 129.325 21.528 128.973 20.184C128.621 18.808 127.917 18.12 126.861 18.12C125.805 18.12 124.941 18.408 124.269 18.984C123.629 19.56 123.213 20.136 123.021 20.712L122.685 21.528V22.2ZM156.757 21.096L156.853 32.472C156.853 34.968 156.517 37.176 155.845 39.096C155.173 41.048 154.357 42.552 153.397 43.608C152.437 44.696 151.333 45.576 150.085 46.248C148.069 47.368 146.037 47.928 143.989 47.928C143.893 47.928 143.701 47.688 143.413 47.208C143.125 46.728 142.853 46.072 142.597 45.24C142.341 44.408 142.213 43.64 142.213 42.936H143.125C143.765 42.936 144.373 42.872 144.949 42.744C145.557 42.648 146.293 42.344 147.157 41.832C148.021 41.32 148.757 40.648 149.365 39.816C149.973 38.984 150.501 37.752 150.949 36.12C151.397 34.488 151.621 32.584 151.621 30.408C151.621 30.28 151.605 30.216 151.573 30.216L151.429 30.36C150.085 32.44 147.989 33.48 145.141 33.48C142.997 33.48 141.285 32.632 140.005 30.936C138.725 29.24 138.085 27.336 138.085 25.224C138.085 21.384 139.317 18.216 141.781 15.72C144.245 13.224 147.781 11.976 152.389 11.976C153.509 11.976 154.069 12.056 154.069 12.216C154.165 12.76 154.213 13.352 154.213 13.992L154.165 14.712H154.693C155.717 14.712 156.405 14.808 156.757 15V21.096ZM151.525 17.064L150.517 16.92C148.469 16.92 146.837 17.592 145.621 18.936C144.437 20.248 143.845 21.896 143.845 23.88C143.845 24.872 144.133 25.736 144.709 26.472C145.317 27.208 146.181 27.576 147.301 27.576C148.453 27.576 149.413 27.128 150.181 26.232C150.949 25.336 151.333 24.616 151.333 24.072C151.333 20.424 151.397 18.088 151.525 17.064Z" fill="black"/>
</svg>
