<svg width="180" height="37" viewBox="0 0 180 37" fill="none" xmlns="http://www.w3.org/2000/svg">
<path d="M1.81319 34.968C1.10919 34.968 0.533188 34.872 0.0851876 34.68C0.0851876 29.304 0.549188 21.64 1.47719 11.688L1.90919 6.744C1.46119 6.2 1.02919 5.368 0.613188 4.248C0.229188 3.128 0.0371876 2.344 0.0371876 1.896L0.0851876 1.752C0.181188 1.624 0.981188 1.512 2.48519 1.416C3.98919 1.32 5.63719 1.272 7.42919 1.272C9.25319 1.272 10.2452 1.352 10.4052 1.512C10.5652 1.672 11.3332 3.688 12.7092 7.56C14.0852 11.4 15.1092 14.376 15.7812 16.488C15.8452 16.648 15.9252 16.728 16.0212 16.728C16.1172 16.728 16.2772 16.392 16.5012 15.72C16.7252 15.016 17.6532 12.616 19.2852 8.52C20.9172 4.392 22.0052 2.056 22.5492 1.512C22.8372 1.224 24.3892 1.08 27.2052 1.08C30.0212 1.08 31.4292 1.16 31.4292 1.32C31.4292 1.864 31.2052 2.808 30.7572 4.152C30.3412 5.496 29.9892 6.44 29.7012 6.984C30.8212 17.128 31.3812 26.104 31.3812 33.912C31.3812 34.232 30.7252 34.52 29.4132 34.776C28.1332 35.064 27.0772 35.208 26.2452 35.208C25.4132 35.208 24.9972 35.144 24.9972 35.016C25.0932 33.704 25.1412 31.592 25.1412 28.68C25.1412 25.736 25.0612 22.248 24.9012 18.216C24.7412 13.192 24.5492 10.68 24.3252 10.68L24.0372 10.968C23.3972 12.152 22.5652 14.152 21.5412 16.968C20.5492 19.784 19.7172 22.312 19.0452 24.552L18.0372 27.864C17.8772 28.216 17.3972 28.392 16.5972 28.392C15.8292 28.392 15.1892 28.344 14.6772 28.248C14.1972 28.152 13.9412 28.056 13.9092 27.96C13.8132 27.608 12.8212 24.808 10.9332 19.56C9.04519 14.28 7.95719 11.464 7.66919 11.112C7.57319 10.92 7.49319 10.824 7.42919 10.824C7.36519 10.824 7.31719 10.936 7.28519 11.16C6.70919 14.072 6.42119 18.36 6.42119 24.024C6.42119 29.656 6.50119 32.92 6.66119 33.816C5.86119 34.584 4.24519 34.968 1.81319 34.968ZM46.5739 17.736C46.5739 16.808 46.0779 16.344 45.0859 16.344C43.7739 16.344 42.6219 17.016 41.6299 18.36C40.6379 19.704 40.1419 21.32 40.1419 23.208C40.1419 23.656 40.2059 23.88 40.3339 23.88C41.4859 23.848 42.8139 23.192 44.3179 21.912C45.8219 20.6 46.5739 19.208 46.5739 17.736ZM50.7499 33C49.6619 33.736 47.5339 34.104 44.3659 34.104C41.1979 34.104 38.7659 33.16 37.0699 31.272C35.3739 29.384 34.5259 26.872 34.5259 23.736C34.5259 20.568 35.5339 17.832 37.5499 15.528C39.5979 13.192 42.4619 12.024 46.1419 12.024C47.6459 12.024 49.0219 12.424 50.2699 13.224C51.5499 14.024 52.1899 15.432 52.1899 17.448C52.1899 19.432 51.3099 21.4 49.5499 23.352C47.8219 25.304 45.4539 26.792 42.4459 27.816C42.4459 28.2 42.8299 28.52 43.5979 28.776C44.3979 29 45.1819 29.112 45.9499 29.112C48.3819 29.112 50.3019 28.68 51.7099 27.816C51.7419 27.784 51.7899 27.768 51.8539 27.768C51.9179 27.768 51.9499 28.072 51.9499 28.68C51.9499 30.536 51.5499 31.976 50.7499 33ZM61.5908 22.2L61.6388 23.976V27.624C61.6388 31.048 61.5748 32.824 61.4468 32.952C61.0308 33.368 60.3108 33.688 59.2868 33.912C58.2628 34.136 57.4148 34.248 56.7428 34.248C56.1028 34.248 55.7828 34.2 55.7828 34.104C56.0068 32.664 56.1188 30.296 56.1188 27L55.9748 16.2C55.9748 14.216 56.0548 13.144 56.2148 12.984C56.5668 12.632 57.1748 12.328 58.0388 12.072C58.9028 11.784 59.7028 11.64 60.4388 11.64C61.2068 11.64 61.5908 11.72 61.5908 11.88C61.4948 12.648 61.4468 13.416 61.4468 14.184C61.4468 14.952 61.4948 15.336 61.5908 15.336L61.7348 15.24C61.8948 15.016 62.1348 14.744 62.4548 14.424C62.7748 14.072 63.4468 13.624 64.4708 13.08C65.5268 12.504 66.5188 12.216 67.4468 12.216C68.4068 12.216 69.2068 12.392 69.8468 12.744C70.5188 13.064 71.0628 13.464 71.4788 13.944C71.8948 14.424 72.2468 15.112 72.5348 16.008C72.8548 16.904 73.0948 17.736 73.2548 18.504C73.4148 19.272 73.5428 20.296 73.6388 21.576C73.7348 23.336 73.7828 25.576 73.7828 28.296L73.6388 33.912C73.6388 34.136 73.1108 34.344 72.0548 34.536C70.9988 34.76 70.1508 34.872 69.5108 34.872L67.9268 34.632C68.2468 31.752 68.4068 28.968 68.4068 26.28C68.4068 23.56 68.2308 21.528 67.8788 20.184C67.5268 18.808 66.8228 18.12 65.7668 18.12C64.7108 18.12 63.8468 18.408 63.1748 18.984C62.5348 19.56 62.1188 20.136 61.9268 20.712L61.5908 21.528V22.2ZM91.5833 27.48C91.5833 29.208 90.7673 30.76 89.1353 32.136C87.5353 33.48 85.7913 34.44 83.9033 35.016C82.0473 35.624 80.4153 35.928 79.0073 35.928C78.8473 35.928 78.6233 35.736 78.3353 35.352C77.5353 34.296 77.1353 33.064 77.1353 31.656V31.32C79.6313 31.32 81.5353 30.888 82.8473 30.024C84.1593 29.16 84.8153 28.264 84.8153 27.336C84.8153 26.728 84.4153 26.088 83.6153 25.416C82.8153 24.744 81.9353 24.152 80.9753 23.64C80.0153 23.128 79.1353 22.456 78.3353 21.624C77.5353 20.76 77.1353 19.864 77.1353 18.936C77.1353 16.984 78.3513 15.192 80.7833 13.56C83.2153 11.928 85.8073 11.112 88.5593 11.112C88.8793 11.112 89.2953 11.56 89.8073 12.456C90.3193 13.32 90.5913 14.216 90.6233 15.144C89.9833 15.144 89.0233 15.336 87.7433 15.72C85.2153 16.52 83.9513 17.512 83.9513 18.696C83.9513 19.528 85.1993 20.664 87.6953 22.104C88.6553 22.648 89.5353 23.4 90.3353 24.36C91.1353 25.32 91.5513 26.36 91.5833 27.48ZM118.302 34.488C113.63 34.488 110.094 33.144 107.694 30.456C105.294 27.768 104.094 24.296 104.094 20.04C104.094 16.424 104.894 13.064 106.494 9.96C107.422 8.136 108.59 6.536 109.998 5.16C111.406 3.784 113.31 2.648 115.71 1.752C118.11 0.855999 120.83 0.407999 123.87 0.407999C124.894 0.407999 125.806 0.503999 126.606 0.695998C127.406 0.887998 127.806 1.016 127.806 1.08C127.806 2.616 127.694 4.376 127.47 6.36C127.278 8.312 127.166 9.304 127.134 9.336C126.974 9.496 126.302 9.752 125.118 10.104C123.966 10.456 123.102 10.632 122.526 10.632V10.344C122.526 8.904 122.318 7.896 121.902 7.32C121.486 6.744 120.766 6.456 119.742 6.456C117.47 6.456 115.358 7.656 113.406 10.056C111.454 12.424 110.478 15.688 110.478 19.848C110.478 22.056 111.022 24.04 112.11 25.8C112.686 26.728 113.518 27.48 114.606 28.056C115.726 28.632 117.038 28.92 118.542 28.92C121.55 28.92 124.478 27.528 127.326 24.744C127.454 24.744 127.71 24.952 128.094 25.368C128.51 25.752 128.91 26.28 129.294 26.952C130.094 28.232 130.494 29.016 130.494 29.304C130.494 29.592 129.998 30.136 129.006 30.936C128.014 31.704 126.51 32.488 124.494 33.288C122.478 34.088 120.414 34.488 118.302 34.488ZM144.981 31.176L144.933 30.168L144.885 30.072C144.117 31.256 143.141 32.2 141.957 32.904C140.805 33.608 139.669 33.96 138.549 33.96C135.189 33.96 133.269 31.352 132.789 26.136C132.725 25.304 132.693 23.16 132.693 19.704C132.693 16.248 132.837 14.2 133.125 13.56C133.957 12.888 135.301 12.552 137.157 12.552C137.893 12.552 138.341 12.632 138.501 12.792C138.501 12.824 138.485 13.256 138.453 14.088C138.293 16.52 138.213 18.392 138.213 19.704C138.213 21.016 138.229 21.992 138.261 22.632C138.293 23.24 138.309 23.64 138.309 23.832C138.341 23.992 138.389 24.296 138.453 24.744C138.549 25.192 138.677 25.576 138.837 25.896C139.317 26.824 140.053 27.288 141.045 27.288C142.069 27.288 142.965 26.792 143.733 25.8C144.533 24.776 144.917 24.056 144.885 23.64V22.008C144.885 16.152 144.981 13 145.173 12.552C145.333 12.264 145.829 11.96 146.661 11.64C147.525 11.32 148.373 11.16 149.205 11.16C150.037 11.16 150.517 11.224 150.645 11.352L150.549 13.608C150.357 18.184 150.261 21.72 150.261 24.216C150.261 26.712 150.325 28.296 150.453 28.968C150.677 30.568 151.109 31.848 151.749 32.808C151.749 33.128 151.093 33.64 149.781 34.344C148.469 35.048 147.349 35.4 146.421 35.4C146.165 35.4 145.877 34.92 145.557 33.96C145.237 33 145.045 32.072 144.981 31.176ZM161.207 1.56C161.143 2.296 161.063 4.312 160.967 7.608C163.367 7.608 164.567 7.656 164.567 7.752C164.567 8.84 164.407 9.816 164.087 10.68C163.767 11.512 163.463 11.928 163.175 11.928H160.919C160.855 16.664 160.823 20.52 160.823 23.496C160.823 26.44 160.871 28.408 160.967 29.4C161.159 31.064 161.815 32.424 162.935 33.48C162.935 33.832 162.311 34.344 161.063 35.016C159.847 35.688 158.695 36.024 157.607 36.024C157.511 36.024 157.319 35.864 157.031 35.544C156.775 35.224 156.487 34.696 156.167 33.96C155.879 33.224 155.687 32.504 155.591 31.8C155.527 31.096 155.495 28.584 155.495 24.264C155.495 19.944 155.543 15.864 155.639 12.024L152.951 12.072C152.791 11.912 152.711 11.224 152.711 10.008C152.711 8.76 152.855 8.008 153.143 7.752C153.847 7.72 154.695 7.688 155.687 7.656C155.687 5.8 155.639 4.6 155.543 4.056C155.447 3.512 155.399 3.192 155.399 3.096C155.399 2.776 155.943 2.408 157.031 1.992C158.151 1.576 159.127 1.368 159.959 1.368C160.791 1.368 161.207 1.432 161.207 1.56ZM179.661 27.48C179.661 29.208 178.845 30.76 177.213 32.136C175.613 33.48 173.869 34.44 171.981 35.016C170.125 35.624 168.493 35.928 167.085 35.928C166.925 35.928 166.701 35.736 166.413 35.352C165.613 34.296 165.213 33.064 165.213 31.656V31.32C167.709 31.32 169.613 30.888 170.925 30.024C172.237 29.16 172.893 28.264 172.893 27.336C172.893 26.728 172.493 26.088 171.693 25.416C170.893 24.744 170.013 24.152 169.053 23.64C168.093 23.128 167.213 22.456 166.413 21.624C165.613 20.76 165.213 19.864 165.213 18.936C165.213 16.984 166.429 15.192 168.861 13.56C171.293 11.928 173.885 11.112 176.637 11.112C176.957 11.112 177.373 11.56 177.885 12.456C178.397 13.32 178.669 14.216 178.701 15.144C178.061 15.144 177.101 15.336 175.821 15.72C173.293 16.52 172.029 17.512 172.029 18.696C172.029 19.528 173.277 20.664 175.773 22.104C176.733 22.648 177.613 23.4 178.413 24.36C179.213 25.32 179.629 26.36 179.661 27.48Z" fill="currentColor"/>
</svg>
