<svg width="108" height="37" viewBox="0 0 108 37" fill="none" xmlns="http://www.w3.org/2000/svg">
<path d="M11.5691 36.304C11.2491 36.304 11.0571 36.272 10.9931 36.208C9.93706 35.248 7.96906 30.432 5.08906 21.76C2.20906 13.088 0.769063 7.136 0.769063 3.904C0.769063 3.84 0.993063 3.712 1.44106 3.52C2.78506 2.912 4.00106 2.608 5.08906 2.608C6.20906 2.608 6.76906 2.656 6.76906 2.752C6.89706 4.32 7.84106 8.464 9.60106 15.184C11.3931 21.904 12.9291 26.56 14.2091 29.152C14.4971 29.728 14.7851 29.872 15.0731 29.584C15.1691 29.488 15.2331 29.376 15.2651 29.248C16.1291 27.616 17.3611 24.304 18.9611 19.312C20.5931 14.288 21.4091 10.16 21.4091 6.928C21.4091 6.544 21.0411 6.128 20.3051 5.68C19.6011 5.232 18.9611 4.976 18.3851 4.912C18.3531 4.848 18.3371 4.672 18.3371 4.384C18.3371 4.096 18.4171 3.648 18.5771 3.04C18.7371 2.4 18.8811 2.032 19.0091 1.936C21.9531 1.136 24.8971 0.735999 27.8411 0.735999C28.3211 0.799998 28.5611 0.863998 28.5611 0.927999C28.5611 3.68 27.8091 7.808 26.3051 13.312C24.8331 18.784 23.3131 23.68 21.7451 28C20.1771 32.288 19.1531 34.672 18.6731 35.152C17.2651 35.92 14.8971 36.304 11.5691 36.304ZM33.9408 5.344C34.8368 5.344 35.5568 5.632 36.1008 6.208C36.6448 6.784 36.9168 7.536 36.9168 8.464C36.9168 9.392 36.5488 10.192 35.8128 10.864C35.1088 11.504 34.3088 11.824 33.4128 11.824C32.5488 11.824 31.8448 11.552 31.3008 11.008C30.7888 10.432 30.5328 9.68 30.5328 8.752C30.5328 7.824 30.8848 7.024 31.5888 6.352C32.2928 5.68 33.0768 5.344 33.9408 5.344ZM36.3888 17.296L36.2928 25.072C36.2928 27.568 36.3568 29.408 36.4848 30.592C36.6448 31.744 37.0608 32.832 37.7328 33.856C37.7328 34.176 37.0768 34.688 35.7648 35.392C34.4528 36.096 33.3328 36.448 32.4048 36.448C32.1168 36.448 31.8288 35.968 31.5408 35.008C31.2528 34.048 31.0608 33.136 30.9648 32.272C30.9008 31.408 30.8688 28.496 30.8688 23.536C30.8688 18.576 30.9808 15.872 31.2048 15.424C31.9408 14.848 33.2368 14.56 35.0928 14.56C35.8288 14.56 36.2768 14.656 36.4368 14.848L36.3888 17.296ZM47.4637 35.056C46.5677 35.056 45.8317 34.96 45.2557 34.768C45.2557 34.096 44.2317 30.72 42.1837 24.64C40.1677 18.528 39.1597 14.832 39.1597 13.552C39.1597 13.488 39.3197 13.36 39.6397 13.168C39.9917 12.944 40.5837 12.72 41.4157 12.496C42.2477 12.272 43.1917 12.16 44.2477 12.16C46.1997 20.096 47.6717 25.168 48.6637 27.376C48.6957 27.536 48.7597 27.536 48.8557 27.376C49.4317 26.352 50.3117 23.648 51.4957 19.264C52.6797 14.848 53.3357 11.968 53.4637 10.624C53.4957 10.432 53.8477 10.272 54.5197 10.144C55.1917 9.984 56.0717 9.904 57.1597 9.904C58.2477 9.904 58.9837 10.064 59.3677 10.384C59.3677 11.312 58.2317 15.456 55.9597 22.816C53.6877 30.144 52.4237 33.936 52.1677 34.192C51.7197 34.64 50.4877 34.912 48.4717 35.008L47.4637 35.056ZM64.7377 5.344C65.6337 5.344 66.3537 5.632 66.8977 6.208C67.4417 6.784 67.7137 7.536 67.7137 8.464C67.7137 9.392 67.3457 10.192 66.6097 10.864C65.9057 11.504 65.1057 11.824 64.2097 11.824C63.3457 11.824 62.6417 11.552 62.0977 11.008C61.5857 10.432 61.3297 9.68 61.3297 8.752C61.3297 7.824 61.6817 7.024 62.3857 6.352C63.0897 5.68 63.8737 5.344 64.7377 5.344ZM67.1857 17.296L67.0897 25.072C67.0897 27.568 67.1537 29.408 67.2817 30.592C67.4417 31.744 67.8577 32.832 68.5297 33.856C68.5297 34.176 67.8737 34.688 66.5617 35.392C65.2497 36.096 64.1297 36.448 63.2017 36.448C62.9137 36.448 62.6257 35.968 62.3377 35.008C62.0497 34.048 61.8577 33.136 61.7617 32.272C61.6977 31.408 61.6657 28.496 61.6657 23.536C61.6657 18.576 61.7777 15.872 62.0017 15.424C62.7377 14.848 64.0337 14.56 65.8897 14.56C66.6257 14.56 67.0737 14.656 67.2337 14.848L67.1857 17.296ZM83.8766 13.408L83.7806 6.304C83.7806 4.32 83.8286 3.28 83.9246 3.184C84.3086 2.8 84.9326 2.432 85.7966 2.08C86.6926 1.696 87.5406 1.504 88.3406 1.504C89.1406 1.504 89.5406 1.568 89.5406 1.696C89.2846 7.008 89.1566 12.656 89.1566 18.64C89.1566 24.624 89.2526 28.192 89.4446 29.344C89.6686 31.072 90.1966 32.352 91.0286 33.184C91.0286 33.504 90.3566 34 89.0126 34.672C87.7006 35.376 86.5806 35.728 85.6526 35.728C85.5566 35.728 85.4126 35.6 85.2206 35.344C84.6126 34.544 84.2446 33.456 84.1166 32.08C84.1166 31.984 84.0846 31.936 84.0206 31.936L83.8766 32.032C82.5326 33.952 80.5326 34.912 77.8766 34.912C75.7326 34.912 74.0366 34.064 72.7886 32.368C71.5406 30.672 70.9166 28.768 70.9166 26.656C70.9166 23.04 72.0366 19.968 74.2766 17.44C76.5166 14.88 79.7166 13.536 83.8766 13.408ZM83.9726 18.448C83.9726 18.384 83.7966 18.352 83.4446 18.352H83.2526C81.2046 18.352 79.5886 19.008 78.4046 20.32C77.2526 21.632 76.6766 23.296 76.6766 25.312C76.6766 26.496 76.9486 27.472 77.4926 28.24C78.0686 28.976 78.9166 29.344 80.0366 29.344C81.1886 29.344 82.1006 28.848 82.7726 27.856C83.4766 26.864 83.8286 26.08 83.8286 25.504C83.8286 21.952 83.8766 19.6 83.9726 18.448ZM107.49 28.48C107.49 30.208 106.674 31.76 105.042 33.136C103.442 34.48 101.698 35.44 99.8096 36.016C97.9536 36.624 96.3216 36.928 94.9136 36.928C94.7536 36.928 94.5296 36.736 94.2416 36.352C93.4416 35.296 93.0416 34.064 93.0416 32.656V32.32C95.5376 32.32 97.4416 31.888 98.7536 31.024C100.066 30.16 100.722 29.264 100.722 28.336C100.722 27.728 100.322 27.088 99.5216 26.416C98.7216 25.744 97.8416 25.152 96.8816 24.64C95.9216 24.128 95.0416 23.456 94.2416 22.624C93.4416 21.76 93.0416 20.864 93.0416 19.936C93.0416 17.984 94.2576 16.192 96.6896 14.56C99.1216 12.928 101.714 12.112 104.466 12.112C104.786 12.112 105.202 12.56 105.714 13.456C106.226 14.32 106.498 15.216 106.53 16.144C105.89 16.144 104.93 16.336 103.65 16.72C101.122 17.52 99.8576 18.512 99.8576 19.696C99.8576 20.528 101.106 21.664 103.602 23.104C104.562 23.648 105.442 24.4 106.242 25.36C107.042 26.32 107.458 27.36 107.49 28.48Z" fill="black"/>
</svg>
